Music_RBYPalletTown:
    channel_count 4
    channel 1, Music_RBYPalletTown_Ch1
    channel 2, Music_RBYPalletTown_Ch2
    channel 3, Music_RBYPalletTown_Ch3
    channel 4, Music_RBYPalletTown_Ch4

Music_RBYPalletTown_Ch1:
    tempo 188
    stereo_panning TRUE, TRUE
    vibrato 12, 3, 3
    duty_cycle 0
    octave 3
    volume_envelope 9, 2
    note_type 12, 8, 8
    note D_, 1
    note D_, 1
    note F_, 1
    rest 2
    note D_, 1
    rest 1
    note C_, 1
    rest 1
    note D_, 1
    rest 1
    note F_, 1
    rest 1
    volume_envelope 9, 0
    note E_, 2
    rest 1
    octave 2
    volume_envelope 9, 2
    note G_, 1
    octave 3
    note D_, 1
    note F_, 1
    rest 2
    note F_, 1
    rest 1
    note C_, 1
    rest 1
    note F_, 1
    rest 1
    note A_, 1
    rest 1
    volume_envelope 9, 0
    note G_, 2
    rest 1
    octave 3
    volume_envelope 9, 2
    note D_, 1
    note D_, 1
    note F_, 1
    rest 2
    note D_, 1
    rest 1
    note C_, 1
    rest 1
    note D_, 1
    rest 1
    note F_, 1
    rest 1
    volume_envelope 9, 0
    note E_, 2
    rest 1
    octave 2
    volume_envelope 9, 2
    note G_, 1
    octave 3
    note D_, 1
    note F_, 1
    rest 2
    note F_, 1
    rest 1
    note C_, 1
    rest 1
    note F_, 1
    rest 1
    note A_, 1
    rest 1
    volume_envelope 9, 0
    note G_, 2
    rest 1
    sound_loop 2, Music_RBYPalletTown_Ch1

Music_RBYPalletTown_Ch2:
    stereo_panning TRUE, TRUE
    vibrato 12, 3, 3
    duty_cycle 0
    octave 3
    volume_envelope 9, 2
    note_type 8, 8, 12
    note D_, 1
    note D_, 1
    note F_, 1
    rest 2
    note D_, 1
    rest 1
    note C_, 1
    rest 1
    note D_, 1
    rest 1
    note F_, 1
    rest 1
    volume_envelope 9, 0
    note E_, 2
    rest 1
    octave 2
    volume_envelope 9, 2
    note G_, 1
    octave 3
    note D_, 1
    note F_, 1
    rest 2
    note F_, 1
    rest 1
    note C_, 1
    rest 1
    note F_, 1
    rest 1
    note A_, 1
    rest 1
    volume_envelope 9, 0
    note G_, 2
    rest 1
    octave 3
    volume_envelope 9, 2
    note D_, 1
    note D_, 1
    note F_, 1
    rest 2
    note D_, 1
    rest 1
    note C_, 1
    rest 1
    note D_, 1
    rest 1
    note F_, 1
    rest 1
    volume_envelope 9, 0
    note E_, 2
    rest 1
    octave 2
    volume_envelope 9, 2
    note G_, 1
    octave 3
    note D_, 1
    note F_, 1
    rest 2
    note F_, 1
    rest 1
    note C_, 1
    rest 1
    note F_, 1
    rest 1
    note A_, 1
    rest 1
    volume_envelope 9, 0
    note G_, 2
    rest 1
    sound_loop 2, Music_RBYPalletTown_Ch2

Music_RBYPalletTown_Ch3:
    stereo_panning TRUE, TRUE
    vibrato 12, 3, 3
    duty_cycle 0
    octave 3
    volume_envelope 9, 2
    note_type 6, 8, 10
    note D_, 1
    note D_, 1
    note F_, 1
    rest 2
    note D_, 1
    rest 1
    note C_, 1
    rest 1
    note D_, 1
    rest 1
    note F_, 1
    rest 1
    volume_envelope 9, 0
    note E_, 2
    rest 1
    octave 2
    volume_envelope 9, 2
    note G_, 1
    octave 3
    note D_, 1
    note F_, 1
    rest 2
    note F_, 1
    rest 1
    note C_, 1
    rest 1
    note F_, 1
    rest 1
    note A_, 1
    rest 1
    volume_envelope 9, 0
    note G_, 2
    rest 1
    octave 3
    volume_envelope 9, 2
    note D_, 1
    note D_, 1
    note F_, 1
    rest 2
    note D_, 1
    rest 1
    note C_, 1
    rest 1
    note D_, 1
    rest 1
    note F_, 1
    rest 1
    volume_envelope 9, 0
    note E_, 2
    rest 1
    octave 2
    volume_envelope 9, 2
    note G_, 1
    octave 3
    note D_, 1
    note F_, 1
    rest 2
    note F_, 1
    rest 1
    note C_, 1
    rest 1
    note F_, 1
    rest 1
    note A_, 1
    rest 1
    volume_envelope 9, 0
    note G_, 2
    rest 1
    sound_loop 2, Music_RBYPalletTown_Ch3

Music_RBYPalletTown_Ch4:
    stereo_panning TRUE, TRUE
    vibrato 12, 3, 3
    duty_cycle 0
    octave 3
    volume_envelope 9, 2
    note_type 9, 0, 0
    note D_, 1
    note D_, 1
    note F_, 1
    rest 2
    note D_, 1
    rest 1
    note C_, 1
    rest 1
    note D_, 1
    rest 1
    note F_, 1
    rest 1
    volume_envelope 9, 0
    note E_, 2
    rest 1
    octave 2
    volume_envelope 9, 2
    note G_, 1
    octave 3
    note D_, 1
    note F_, 1
    rest 2
    note F_, 1
    rest 1
    note C_, 1
    rest 1
    note F_, 1
    rest 1
    note A_, 1
    rest 1
    volume_envelope 9, 0
    note G_, 2
    rest 1
    octave 3
    volume_envelope 9, 2
    note D_, 1
    note D_, 1
    note F_, 1
    rest 2
    note D_, 1
    rest 1
    note C_, 1
    rest 1
    note D_, 1
    rest 1
    note F_, 1
